<?xml version="1.0"?>
<!DOCTYPE svg PUBLIC "-//W3C//DTD SVG 1.1//EN" "http://www.w3.org/Graphics/SVG/1.1/DTD/svg11.dtd">
<svg width="157.5363109741442mm" height="107.30983202203211mm" viewBox="0 0 157.5363109741442 137.30983202203211" xmlns="http://www.w3.org/2000/svg" version="1.1">
<g id="Part__Part2DObjectPython002" transform="translate(78.768155,64.772658) scale(1,-1)">
<path id="Part__Part2DObjectPython002_w0000"  d="M 31.86542203703368 0.0 L 77.22368185007068 31.95579987930686 L 61.55983347951544 -21.64142018676873 L 20.051708182574096 -21.64142018676873 L 31.86542203703368 0.0 L 0.0 63.22818474802928 L -31.86542203703368 0.0 L -20.051708182574096 -21.64142018676873 L -61.55983347951544 -21.64142018676873 L -77.22368185007068 31.95579987930686 L -31.86542203703368 0.0 " stroke="black" stroke-width="8" stroke-linejoin="round" fill="none"/>
<path id="Part__Part2DObjectPython002_w0001"  d="M 0.0 -22.00893618176992 L 12.014335105949149 0.0 L 0.0 23.83915075158381 L -12.014335105949149 0.0 Z" stroke="black" stroke-width="8" stroke-linejoin="round" fill="none"/>
<path id="Part__Part2DObjectPython002_w0002"  d="M 46.73555266607506 28.47739464216798 L 37.3314915484819 21.852045778140283 L 32.15430760337412 32.12474646841734 L 43.29562988543459 45.69525225279069 Z " stroke="black" stroke-width="8" stroke-linejoin="round" fill="black"/>
<path id="Part__Part2DObjectPython002_w0003"  d="M -55.9044 -40.9927 L 0.0 -40.9927 L 55.9044 -40.9927 L 58.06968536915425 -33.58371124506733 L 0.0 -33.58371124506733 L -58.06968536915425 -33.58371124506733 Z " stroke="black" stroke-width="8" stroke-linejoin="round" fill="black"/>
<path id="Part__Part2DObjectPython002_w0004"  d="M -46.73555266607506 28.47739464216798 L -37.3314915484819 21.852045778140283 L -32.15430760337412 32.12474646841734 L -43.29562988543459 45.69525225279069 Z " stroke="black" stroke-width="8" stroke-linejoin="round" fill="black"/>
<title>b'Part__Part2DObjectPython002'</title>
</g>
</svg>